# xmcd
#
# Track frame offsets: 
#        150
#        17885
#        33690
#        47777
#        61517
#        78018
#        91266
#        108624
#        127439
#        143725
#        158789
#        172625
#
# Disc length: 2534 seconds
#
# Revision: 0
# Processed by: cddbd v1.5.2PL0 Copyright (c) Steve Scherf et al.
# Submitted via: ExactAudioCopyFreeDBPlugin 1.0
#
DISCID=9509e40c
DTITLE=Heymoonshaker - Noir
DYEAR=2015
DGENRE=Blues
TTITLE0=Find Myself A Home
TTITLE1=Feel Love
TTITLE2=Take The Reins
TTITLE3=Best Of My Love
TTITLE4=Amandine
TTITLE5=Streets Of England
TTITLE6=MF45
TTITLE7=Stoned
TTITLE8=Lazy Eye
TTITLE9=Wheels In Motion
TTITLE10=Coz I Luv You
TTITLE11=Heavy Grip
EXTD=
EXTT0=
EXTT1=
EXTT2=
EXTT3=
EXTT4=
EXTT5=
EXTT6=
EXTT7=
EXTT8=
EXTT9=
EXTT10=
EXTT11=
PLAYORDER=
